<?xml version="1.0" encoding="utf-8"?>
<svg id="master-artboard" viewBox="0 0 644.810791015625 620.8483276367188" version="1.1" xmlns="http://www.w3.org/2000/svg" x="0px" y="0px" style="enable-background:new 0 0 1400 980;" width="644.810791015625px" height="620.8483276367188px" xmlns:xlink="http://www.w3.org/1999/xlink"><rect id="ee-background" x="0" y="0" width="644.810791015625" height="620.8483276367188" style="fill: rgb(255, 255, 255); fill-opacity: 0; pointer-events: none;"/>

<defs style="opacity: 0.15;">
			<path d="M 206.699997 0 H 1187.100021 V 980 H 206.699997 V 0 Z" id="SVGID_1_" class="st124" style="opacity: 0.15;"/>
		<linearGradient id="gradient-0" gradientUnits="objectBoundingBox" x1="0.5" y1="0" x2="0.5" y2="1">
                <stop offset="0" style="stop-color: #ffffff"/>
                <stop offset="1" style="stop-color: #cccccc"/>
              </linearGradient></defs><clipPath id="SVGID_2_" style="opacity: 0.15;">
			<use style="overflow:visible;" xlink:href="#SVGID_1_"/>
		</clipPath>
<g transform="matrix(5.838907241821289, 0, 0, 5.838907241821289, -3483.454833984375, -245.30149841308594)"><g id="g-1" transform="matrix(1, 0, 0, 1, 0, 0)">
	<g id="g-2">
		<path class="st0" d="M652,46c27.6,0,50,22.4,50,50s-22.4,50-50,50s-50-22.4-50-50S624.4,46,652,46z" style="fill: rgb(255, 255, 255); paint-order: stroke; fill-opacity: 1; stroke: rgb(10, 10, 10); stroke-width: 0; stroke-opacity: 0;"/>
	</g>
</g></g><g transform="matrix(4.0189056396484375, 0, 0, 4.0189056396484375, -2707.37451171875, -1161.525894165039)"><g transform="matrix(1, 0, 0, 1, -62.762020111083984, 69.48651885986325)">
			<path fill="#CCCCCB" d="M817.1,225c-40.4,0-73.2,32.8-73.2,73.2c0,40.4,32.8,73.2,73.2,73.2c40.4,0,73.2-32.8,73.2-73.2&#10;&#9;&#9;&#9;&#9;C890.2,257.8,857.4,225,817.1,225z M817.1,366.6c-37.7,0-68.4-30.7-68.4-68.4c0-37.7,30.7-68.4,68.4-68.4&#10;&#9;&#9;&#9;&#9;c37.7,0,68.4,30.7,68.4,68.4C885.5,335.9,854.8,366.6,817.1,366.6z" style="fill: rgb(51, 51, 51); paint-order: fill;"/>
			<g>
				<path d="M 773.200012 297.600006 H 860.800011 V 299.100006 H 773.200012 V 297.600006 Z" fill="#CCCCCB" style="fill: rgb(51, 51, 51); paint-order: fill;"/>
			</g>
			<g>
				<path d="M 816.200012 251.600006 H 817.800012 V 342.300003 H 816.200012 V 251.600006 Z" fill="#CCCCCB" style="fill: rgb(51, 51, 51); paint-order: fill;"/>
			</g>
			<g>
				<path d="M 859.4000244140625 277.8999938964844 L 858.5999755859375 276.3999938964844 L 879.4000244140625 265.79998779296875 L 880.0999755859375 267.3999938964844 L 859.4000244140625 277.8999938964844 Z" fill="#CCCCCB" style="fill: rgb(51, 51, 51); paint-order: fill;"/>
			</g>
			<g>
				<path d="M 860.9000244140625 281.5 L 860.2000122070312 279.8999938964844 L 881.2999877929688 269.8999938964844 L 882 271.3999938964844 L 860.9000244140625 281.5 Z" fill="#CCCCCB" style="fill: rgb(51, 51, 51); paint-order: fill;"/>
			</g>
			<g>
				<path d="M 864 297.29998779296875 L 864 295.5 L 887.7999877929688 295.29998779296875 L 887.7999877929688 297 L 864 297.29998779296875 Z" fill="#CCCCCB" style="fill: rgb(51, 51, 51); paint-order: fill;"/>
			</g>
			<g>
				<path d="M 864.0999755859375 299.70001220703125 L 864 298 L 888.5999755859375 297.79998779296875 L 888.5999755859375 299.6000061035156 L 864.0999755859375 299.70001220703125 Z" fill="#CCCCCB" style="fill: rgb(51, 51, 51); paint-order: fill;"/>
			</g>
			<g>
				<path d="M 887.5999755859375 302.70001220703125 L 864.2000122070312 302.70001220703125 L 864.2000122070312 300.8999938964844 L 887.5999755859375 300.8999938964844 L 887.5999755859375 302.70001220703125 Z" fill="#CCCCCB" style="fill: rgb(51, 51, 51); paint-order: fill;"/>
			</g>
			<g>
				<path d="M 880 330.3999938964844 L 858 321 L 858.7000122070312 319.3999938964844 L 880.5999755859375 328.79998779296875 L 880 330.3999938964844 Z" fill="#CCCCCB" style="fill: rgb(51, 51, 51); paint-order: fill;"/>
			</g>
			<g>
				<path d="M 877.7000122070312 334.1000061035156 L 856.5999755859375 323.70001220703125 L 857.4000244140625 322.20001220703125 L 878.5 332.6000061035156 L 877.7000122070312 334.1000061035156 Z" fill="#CCCCCB" style="fill: rgb(51, 51, 51); paint-order: fill;"/>
			</g>
			<g>
				<path d="M 875.2000122070312 337.8999938964844 L 855.2000122070312 325.79998779296875 L 856.0999755859375 324.3999938964844 L 876.0999755859375 336.3999938964844 L 875.2000122070312 337.8999938964844 Z" fill="#CCCCCB" style="fill: rgb(51, 51, 51); paint-order: fill;"/>
			</g>
			<g>
				<path d="M 872.9000244140625 341.3999938964844 L 853.7000122070312 328.1000061035156 L 854.7000122070312 326.70001220703125 L 873.9000244140625 340 L 872.9000244140625 341.3999938964844 Z" fill="#CCCCCB" style="fill: rgb(51, 51, 51); paint-order: fill;"/>
			</g>
			<g>
				<path d="M 851.5999755859375 360 L 842.5 337.8999938964844 L 844.0999755859375 337.20001220703125 L 853.2000122070312 359.29998779296875 L 851.5999755859375 360 Z" fill="#CCCCCB" style="fill: rgb(51, 51, 51); paint-order: fill;"/>
			</g>
			<g>
				<path d="M 851.7000122070312 360.20001220703125 L 835.5999755859375 341.5 L 836.9000244140625 340.3999938964844 L 853.0999755859375 359.1000061035156 L 851.7000122070312 360.20001220703125 Z" fill="#CCCCCB" style="fill: rgb(51, 51, 51); paint-order: fill;"/>
			</g>
			<g>
				<path d="M 816.0999755859375 369.70001220703125 L 814.4000244140625 369.3999938964844 L 818.2000122070312 344.5 L 819.9000244140625 344.70001220703125 L 816.0999755859375 369.70001220703125 Z" fill="#CCCCCB" style="fill: rgb(51, 51, 51); paint-order: fill;"/>
			</g>
			<g>
				<path d="M 815 369.70001220703125 L 810.9000244140625 344.20001220703125 L 812.5999755859375 343.8999938964844 L 816.7000122070312 369.3999938964844 L 815 369.70001220703125 Z" fill="#CCCCCB" style="fill: rgb(51, 51, 51); paint-order: fill;"/>
			</g>
			<g>
				<path d="M 822.0999755859375 368.70001220703125 L 820.4000244140625 368.70001220703125 L 820.7999877929688 344.5 L 822.5 344.5 L 822.0999755859375 368.70001220703125 Z" fill="#CCCCCB" style="fill: rgb(51, 51, 51); paint-order: fill;"/>
			</g>
			<g>
				<path d="M 789.7000122070312 363.20001220703125 L 788.0999755859375 362.5 L 798 340.5 L 799.5999755859375 341.20001220703125 L 789.7000122070312 363.20001220703125 Z" fill="#CCCCCB" style="fill: rgb(51, 51, 51); paint-order: fill;"/>
			</g>
			<g>
				<path d="M 785.2000122070312 361.20001220703125 L 783.7000122070312 360.29998779296875 L 795.7000122070312 339.3999938964844 L 797.2000122070312 340.29998779296875 L 785.2000122070312 361.20001220703125 Z" fill="#CCCCCB" style="fill: rgb(51, 51, 51); paint-order: fill;"/>
			</g>
			<g>
				<path d="M 778.7999877929688 357.29998779296875 L 777.5999755859375 356.1000061035156 L 794.2000122070312 338.6000061035156 L 795.5 339.79998779296875 L 778.7999877929688 357.29998779296875 Z" fill="#CCCCCB" style="fill: rgb(51, 51, 51); paint-order: fill;"/>
			</g>
			<g>
				<path d="M 779 357 L 777.4000244140625 356.29998779296875 L 787.7999877929688 335.1000061035156 L 789.4000244140625 335.8999938964844 L 779 357 Z" fill="#CCCCCB" style="fill: rgb(51, 51, 51); paint-order: fill;"/>
			</g>
			<g>
				<path d="M 758 336 L 757.2000122070312 334.5 L 777.5 323.1000061035156 L 778.2999877929688 324.6000061035156 L 758 336 Z" fill="#CCCCCB" style="fill: rgb(51, 51, 51); paint-order: fill;"/>
			</g>
			<g>
				<path d="M 755.9000244140625 332.20001220703125 L 755.2000122070312 330.70001220703125 L 776.0999755859375 320.79998779296875 L 776.7999877929688 322.3999938964844 L 755.9000244140625 332.20001220703125 Z" fill="#CCCCCB" style="fill: rgb(51, 51, 51); paint-order: fill;"/>
			</g>
			<g>
				<path d="M 752.7000122070312 327 L 752.2000122070312 325.3999938964844 L 775.2000122070312 318.79998779296875 L 775.7000122070312 320.5 L 752.7000122070312 327 Z" fill="#CCCCCB" style="fill: rgb(51, 51, 51); paint-order: fill;"/>
			</g>
			<g>
				<path d="M 753.5 327.1000061035156 L 752.5 325.6000061035156 L 773 312.6000061035156 L 773.9000244140625 314.1000061035156 L 753.5 327.1000061035156 Z" fill="#CCCCCB" style="fill: rgb(51, 51, 51); paint-order: fill;"/>
			</g>
			<g>
				<path d="M 770.7000122070312 302.8999938964844 L 747.4000244140625 302.8999938964844 L 747.4000244140625 301.20001220703125 L 770.7000122070312 301.20001220703125 L 770.7000122070312 302.8999938964844 Z" fill="#CCCCCB" style="fill: rgb(51, 51, 51); paint-order: fill;"/>
			</g>
			<g>
				<path d="M 746.2000122070312 300.1000061035156 L 745.9000244140625 298.3999938964844 L 771.7000122070312 294.20001220703125 L 772 295.8999938964844 L 746.2000122070312 300.1000061035156 Z" fill="#CCCCCB" style="fill: rgb(51, 51, 51); paint-order: fill;"/>
			</g>
			<g>
				<path d="M 771 300.8999938964844 L 746.2999877929688 293.79998779296875 L 746.7000122070312 292.20001220703125 L 771.5 299.20001220703125 L 771 300.8999938964844 Z" fill="#CCCCCB" style="fill: rgb(51, 51, 51); paint-order: fill;"/>
			</g>
			<g>
				<path d="M 776.0999755859375 278.5 L 756.0999755859375 260.29998779296875 L 757.2000122070312 259 L 777.2999877929688 277.20001220703125 L 776.0999755859375 278.5 Z" fill="#CCCCCB" style="fill: rgb(51, 51, 51); paint-order: fill;"/>
			</g>
			<g>
				<path d="M 778.5999755859375 274.1000061035156 L 752.7999877929688 265.20001220703125 L 753.4000244140625 263.6000061035156 L 779.0999755859375 272.3999938964844 L 778.5999755859375 274.1000061035156 Z" fill="#CCCCCB" style="fill: rgb(51, 51, 51); paint-order: fill;"/>
			</g>
			<g>
				<path d="M 794.2999877929688 259.20001220703125 L 777 239 L 778.2999877929688 237.89999389648438 L 795.5999755859375 258 L 794.2999877929688 259.20001220703125 Z" fill="#CCCCCB" style="fill: rgb(51, 51, 51); paint-order: fill;"/>
			</g>
			<g>
				<path d="M 790.2000122070312 262 L 781.4000244140625 236.39999389648438 L 783.0999755859375 235.8000030517578 L 791.9000244140625 261.3999938964844 L 790.2000122070312 262 Z" fill="#CCCCCB" style="fill: rgb(51, 51, 51); paint-order: fill;"/>
			</g>
			<g>
				<path d="M 796.5 257.8999938964844 L 785.5 234.60000610351562 L 787.0999755859375 233.89999389648438 L 798.0999755859375 257.20001220703125 L 796.5 257.8999938964844 Z" fill="#CCCCCB" style="fill: rgb(51, 51, 51); paint-order: fill;"/>
			</g>
			<g>
				<path d="M 813.5999755859375 253.39999389648438 L 811.9000244140625 253 L 817.2000122070312 227.3000030517578 L 818.9000244140625 227.60000610351562 L 813.5999755859375 253.39999389648438 Z" fill="#CCCCCB" style="fill: rgb(51, 51, 51); paint-order: fill;"/>
			</g>
			<g>
				<path d="M 816.9000244140625 253 L 810.9000244140625 227.5 L 812.5999755859375 227.10000610351562 L 818.5999755859375 252.60000610351562 L 816.9000244140625 253 Z" fill="#CCCCCB" style="fill: rgb(51, 51, 51); paint-order: fill;"/>
			</g>
			<g>
				<path d="M 822.0999755859375 253 L 820.4000244140625 252.89999389648438 L 821.5 227.8000030517578 L 823.2000122070312 227.89999389648438 L 822.0999755859375 253 Z" fill="#CCCCCB" style="fill: rgb(51, 51, 51); paint-order: fill;"/>
			</g>
			<g>
				<path d="M 824.7000122070312 253.60000610351562 L 823 253.39999389648438 L 825.7000122070312 228 L 827.4000244140625 228.1999969482422 L 824.7000122070312 253.60000610351562 Z" fill="#CCCCCB" style="fill: rgb(51, 51, 51); paint-order: fill;"/>
			</g>
			<g>
				<path d="M 844.2999877929688 261.20001220703125 L 842.7999877929688 260.29998779296875 L 855.5999755859375 238.8000030517578 L 857.0999755859375 239.6999969482422 L 844.2999877929688 261.20001220703125 Z" fill="#CCCCCB" style="fill: rgb(51, 51, 51); paint-order: fill;"/>
			</g>
			<path fill="#CCCCCB" d="M817.2,251.7c-25.8,0-46.8,21-46.8,46.8c0,25.8,21,46.8,46.8,46.8c25.8,0,46.8-21,46.8-46.8&#10;&#9;&#9;&#9;&#9;C864,272.7,843,251.7,817.2,251.7z M817.1,342.3c-24.2,0-44-19.7-44-44c0-24.2,19.7-44,44-44s44,19.7,44,44&#10;&#9;&#9;&#9;&#9;C861,322.6,841.3,342.3,817.1,342.3z" style="fill: rgb(51, 51, 51); paint-order: fill;"/>
			<g>
				<g>
					<path fill="#CCCCCB" d="M770.4,254.7c-0.3-0.3-0.6-0.5-0.7-0.6C769.7,254.1,770,254.3,770.4,254.7z" style="fill: rgb(51, 51, 51); paint-order: fill;"/>
					<path fill="#CCCCCB" d="M770.4,254.7c-0.4-0.4-0.7-0.6-0.7-0.6l0.1-0.1C769.8,254.1,770.1,254.3,770.4,254.7L770.4,254.7&#10;&#9;&#9;&#9;&#9;&#9;&#9;L770.4,254.7z" style="fill: rgb(51, 51, 51); paint-order: fill;"/>
				</g>
				<g>
					<path fill="#CCCCCB" d="M833.5,307.8c-0.1-3.8-4.2-3.1-4.2-3.1c-2.8-0.1-2.3-0.4-2.3-0.4c-0.7-0.7-0.5-1.3-0.5-1.3&#10;&#9;&#9;&#9;&#9;&#9;&#9;c-1.1,0.1-1.6-0.2-1.6-0.2l-4.8-4.6l-0.1,0.1c0.6-0.8,0.5-1.6,0.5-1.6c-0.1-3.6-4-3.8-4-3.8c-5.5-1.5-11.4-7.8-11.4-7.8&#10;&#9;&#9;&#9;&#9;&#9;&#9;c-4.1-3.4-6.3-7.5-6.3-7.5c-2.4,0.2-2.8-0.9-2.8-0.9c-0.6-0.4-0.5-3.1-0.5-3.1c-4.2-0.4-21.4-15.7-25.1-19&#10;&#9;&#9;&#9;&#9;&#9;&#9;c3.9,3.8,21.5,23.1,21.5,23.1c1.4-0.5,3.4,0.5,3.4,0.5c1,0.7,0.8,2.2,0.8,2.2c3.4,0.4,12.2,9.5,12.2,9.5&#10;&#9;&#9;&#9;&#9;&#9;&#9;c3.7,3.7,6.7,8.8,6.7,8.8c1.4,1.6,3.7,0.8,3.7,0.8c0.4-0.2,0.5-0.2,0.7-0.4l5.1,4.8c0.5,0.7,0.1,1.3,0.1,1.3&#10;&#9;&#9;&#9;&#9;&#9;&#9;c1-0.1,1.6,0.5,1.6,0.5c1,0.7,0.2,1.8,0.2,1.8c-0.2,2.1,2.2,3.4,2.2,3.4c1.7,0.8,3.4-0.2,3.4-0.2&#10;&#9;&#9;&#9;&#9;&#9;&#9;C833.9,309.6,833.5,307.8,833.5,307.8z" style="fill: rgb(51, 51, 51); paint-order: fill;"/>
					<path fill="#CCCCCB" d="M830.1,311.3L830.1,311.3c-0.5,0-1-0.1-1.5-0.3c0,0-2.4-1.3-2.3-3.4c0-0.1,0.7-1-0.2-1.7&#10;&#9;&#9;&#9;&#9;&#9;&#9;c0,0-0.6-0.7-1.5-0.5l-0.1,0l0-0.1c0,0,0.3-0.6-0.1-1.3l-5.1-4.7c-0.2,0.1-0.2,0.2-0.4,0.2c-0.1,0-0.2,0.1-0.3,0.1&#10;&#9;&#9;&#9;&#9;&#9;&#9;c0,0-0.6,0.2-1.4,0.2c-1,0-1.8-0.3-2.3-1c0-0.1-3-5.2-6.7-8.8c-0.1-0.1-8.8-9-12.1-9.5l0,0l0,0c0,0,0.2-1.5-0.7-2.2&#10;&#9;&#9;&#9;&#9;&#9;&#9;c0,0-1.3-0.6-2.4-0.6c-0.3,0-0.6,0.1-0.9,0.2l0,0l0,0c-0.2-0.2-17.7-19.4-21.5-23.1l0.1-0.1c3.5,3.1,20.9,18.6,25,19l0,0l0,0&#10;&#9;&#9;&#9;&#9;&#9;&#9;c0,0-0.1,2.7,0.5,3.1c0,0,0.3,0.9,2.1,0.9c0.2,0,0.4,0,0.6,0l0,0l0,0c0,0,2.3,4.1,6.3,7.5c0.1,0.1,6,6.3,11.4,7.7&#10;&#9;&#9;&#9;&#9;&#9;&#9;c0,0,4,0.3,4.1,3.9c0,0,0,0.7-0.4,1.5l4.8,4.6l0,0c0,0,0.3,0.2,1.1,0.2c0.2,0,0.3,0,0.5,0l0.1,0l0,0.1c0,0-0.2,0.6,0.5,1.3l0,0&#10;&#9;&#9;&#9;&#9;&#9;&#9;l-0.1,0c0,0,0.2,0.2,2.3,0.3c0,0,0.3,0,0.7,0c1,0,3.4,0.3,3.5,3.2c0,0,0.3,1.8-1.5,2.9C832.1,310.8,831.2,311.3,830.1,311.3&#10;&#9;&#9;&#9;&#9;&#9;&#9;L830.1,311.3z M824.9,305.2c0.8,0,1.3,0.6,1.4,0.6c1,0.7,0.3,1.8,0.2,1.8c-0.2,2,2.2,3.3,2.2,3.3c0.4,0.2,0.9,0.3,1.4,0.3&#10;&#9;&#9;&#9;&#9;&#9;&#9;c1.1,0,1.9-0.5,1.9-0.5c1.8-1.1,1.4-2.8,1.4-2.9c-0.1-2.7-2.2-3.2-3.5-3.2c-0.4,0-0.7,0-0.7,0c-2.3-0.1-2.4-0.3-2.4-0.3&#10;&#9;&#9;&#9;&#9;&#9;&#9;c0,0,0,0,0-0.1c-0.5-0.6-0.5-1.1-0.5-1.3c-0.2,0-0.3,0-0.5,0c-0.8,0-1.1-0.2-1.1-0.2l-4.8-4.6l-0.1,0.1l-0.1-0.1&#10;&#9;&#9;&#9;&#9;&#9;&#9;c0.5-0.8,0.5-1.6,0.5-1.6c-0.1-3.5-3.9-3.8-4-3.8c-5.4-1.5-11.4-7.7-11.5-7.8c-3.9-3.2-6.1-7.1-6.3-7.5c-0.2,0-0.4,0-0.6,0&#10;&#9;&#9;&#9;&#9;&#9;&#9;c-1.9,0-2.2-0.9-2.2-0.9c-0.6-0.4-0.5-2.8-0.5-3.1c-3.9-0.4-18.8-13.5-23.9-18c5.2,5.3,19.8,21.4,20.5,22&#10;&#9;&#9;&#9;&#9;&#9;&#9;c0.3-0.1,0.6-0.1,0.9-0.1c1.2,0,2.5,0.6,2.5,0.6c0.9,0.6,0.8,2,0.8,2.2c3.4,0.5,11.8,9.1,12.1,9.5c3.7,3.7,6.7,8.8,6.7,8.8&#10;&#9;&#9;&#9;&#9;&#9;&#9;c0.5,0.6,1.3,1,2.3,1c0.7,0,1.3-0.2,1.3-0.2c0.1-0.1,0.2-0.1,0.3-0.2c0.2-0.1,0.2-0.1,0.4-0.3l0,0l0,0l5.1,4.8&#10;&#9;&#9;&#9;&#9;&#9;&#9;c0.4,0.6,0.2,1.1,0.2,1.3C824.8,305.2,824.8,305.2,824.9,305.2L824.9,305.2z" style="fill: rgb(51, 51, 51); paint-order: fill;"/>
				</g>
			</g>
			<g>
				<g>
					<path fill="#CCCCCB" d="M845.4,267.2c0.2-0.2,0.4-0.3,0.4-0.4C845.8,266.8,845.6,267,845.4,267.2z" style="fill: rgb(51, 51, 51); paint-order: fill;"/>
					<path fill="#CCCCCB" d="M845.4,267.3L845.4,267.3l0.4-0.5l0.1,0.1C845.8,266.9,845.6,267.1,845.4,267.3L845.4,267.3z" style="fill: rgb(51, 51, 51); paint-order: fill;"/>
				</g>
				<g>
					<path fill="#CCCCCB" d="M809.2,306.2c2.6-0.1,2.1-2.6,2.1-2.6c0.1-1.7,0.2-1.4,0.2-1.4c0.5-0.4,0.9-0.3,0.9-0.3&#10;&#9;&#9;&#9;&#9;&#9;&#9;c-0.1-0.7,0.1-1,0.1-1l3.1-3l-0.1-0.1c0.6,0.3,1.1,0.3,1.1,0.3c2.4,0,2.6-2.5,2.6-2.5c1-3.4,5.3-7.1,5.3-7.1&#10;&#9;&#9;&#9;&#9;&#9;&#9;c2.3-2.6,5.1-3.9,5.1-3.9c-0.2-1.5,0.6-1.7,0.6-1.7c0.3-0.4,2.1-0.3,2.1-0.3c0.3-2.6,10.7-13.2,12.9-15.5&#10;&#9;&#9;&#9;&#9;&#9;&#9;c-2.6,2.4-15.7,13.3-15.7,13.3c0.4,0.8-0.3,2.1-0.3,2.1c-0.5,0.6-1.5,0.5-1.5,0.5c-0.3,2.1-6.4,7.5-6.4,7.5&#10;&#9;&#9;&#9;&#9;&#9;&#9;c-2.5,2.3-6,4.2-6,4.2c-1.1,0.8-0.5,2.3-0.5,2.3c0.1,0.3,0.1,0.3,0.3,0.5l-3.3,3.2c-0.5,0.3-0.9,0.1-0.9,0.1&#10;&#9;&#9;&#9;&#9;&#9;&#9;c0.1,0.6-0.4,1-0.4,1c-0.5,0.6-1.2,0.2-1.2,0.2c-1.4-0.1-2.3,1.4-2.3,1.4c-0.6,1,0.1,2.1,0.1,2.1&#10;&#9;&#9;&#9;&#9;&#9;&#9;C808,306.4,809.2,306.2,809.2,306.2z" style="fill: rgb(51, 51, 51); paint-order: fill;"/>
					<path fill="#CCCCCB" d="M808.9,306.3L808.9,306.3c-0.4,0-1.2-0.1-1.8-0.9c0,0-0.7-1.1-0.1-2.1c0,0,0.9-1.5,2.3-1.4&#10;&#9;&#9;&#9;&#9;&#9;&#9;c0,0,0.3,0.2,0.6,0.2c0.2,0,0.4-0.1,0.6-0.3c0,0,0.4-0.4,0.4-0.9l0-0.1l0.1,0c0,0,0.1,0.1,0.4,0.1c0.2,0,0.3-0.1,0.5-0.2&#10;&#9;&#9;&#9;&#9;&#9;&#9;l3.2-3.1c-0.1-0.1-0.1-0.1-0.2-0.2c0-0.1-0.1-0.1-0.1-0.2c0,0-0.6-1.5,0.5-2.3c0,0,3.5-1.9,6-4.2c0.1-0.1,6.1-5.4,6.4-7.5l0,0&#10;&#9;&#9;&#9;&#9;&#9;&#9;l0,0c0,0,1,0.1,1.5-0.5c0,0,0.7-1.2,0.3-2l0,0l0,0c0.1-0.1,13.2-10.9,15.7-13.3l0.1,0.1c-2.1,2.1-12.6,12.9-12.9,15.4l0,0l0,0&#10;&#9;&#9;&#9;&#9;&#9;&#9;c0,0-0.1,0-0.3,0c-1,0-1.6,0.1-1.8,0.3c0,0-0.7,0.3-0.6,1.7l0,0l0,0c0,0-2.8,1.4-5.1,3.9c0,0-4.3,3.7-5.3,7&#10;&#9;&#9;&#9;&#9;&#9;&#9;c0,0-0.2,2.5-2.6,2.5l0,0c-0.1,0-0.5,0-1-0.3l0,0l-3.1,3l0,0c0,0-0.2,0.3-0.1,1l0,0.1l-0.1,0c0,0-0.1,0-0.1,0&#10;&#9;&#9;&#9;&#9;&#9;&#9;c-0.2,0-0.4,0.1-0.7,0.3l0,0l0,0c0,0-0.1,0.1-0.2,1.4c0,0,0.2,1.1-0.4,1.9c-0.4,0.5-1,0.7-1.8,0.7&#10;&#9;&#9;&#9;&#9;&#9;&#9;C809.2,306.3,809.1,306.3,808.9,306.3L808.9,306.3z M809.2,301.9c-1.3,0-2.1,1.4-2.1,1.4c-0.6,1,0.1,2,0.1,2&#10;&#9;&#9;&#9;&#9;&#9;&#9;c0.5,0.8,1.3,0.9,1.7,0.9h0c0.2,0,0.3,0,0.3,0c0.8,0,1.3-0.3,1.7-0.7c0.6-0.7,0.4-1.8,0.4-1.8c0.1-1.5,0.2-1.5,0.3-1.5&#10;&#9;&#9;&#9;&#9;&#9;&#9;c0,0,0,0,0,0c0.3-0.3,0.7-0.3,0.9-0.3c-0.1-0.7,0.1-1,0.1-1l3.1-2.9l0-0.1l0.1-0.1c0.5,0.3,1,0.3,1.1,0.3&#10;&#9;&#9;&#9;&#9;&#9;&#9;c2.4,0,2.5-2.4,2.6-2.4c1-3.4,5.2-7.1,5.3-7.1c2.2-2.4,4.8-3.8,5.1-3.9c-0.1-1.5,0.6-1.7,0.6-1.7c0.2-0.3,1.2-0.3,1.8-0.3&#10;&#9;&#9;&#9;&#9;&#9;&#9;c0.1,0,0.2,0,0.3,0c0.3-2.4,8.6-11.1,11.9-14.5c-3.9,3.4-14.1,11.9-14.7,12.4c0.3,0.9-0.3,2-0.3,2.1c-0.4,0.6-1.3,0.5-1.5,0.5&#10;&#9;&#9;&#9;&#9;&#9;&#9;c-0.4,2.1-6.2,7.3-6.4,7.5c-2.5,2.3-6,4.2-6,4.2c-1,0.8-0.5,2.2-0.5,2.2c0,0.1,0.1,0.2,0.1,0.2c0,0.1,0.1,0.1,0.2,0.2l0,0&#10;&#9;&#9;&#9;&#9;&#9;&#9;l-3.3,3.2c-0.2,0.1-0.4,0.2-0.6,0.2c-0.1,0-0.3,0-0.3-0.1c0,0.6-0.4,0.9-0.4,0.9c-0.2,0.2-0.4,0.3-0.7,0.3&#10;&#9;&#9;&#9;&#9;&#9;&#9;c-0.3,0-0.6-0.2-0.6-0.2C809.3,301.9,809.3,301.9,809.2,301.9L809.2,301.9z" style="fill: rgb(51, 51, 51); paint-order: fill;"/>
				</g>
			</g>
		</g></g></svg>